<svg width="123" height="34" viewBox="0 0 123 34" fill="none" xmlns="http://www.w3.org/2000/svg">
<path d="M2.41211 18H0.078125L5.3125 3.44922H7.85156L13.0762 18H10.752L6.63086 6.0957H6.51367L2.41211 18ZM2.80273 12.3066H10.3516V14.1426H2.80273V12.3066ZM13.7164 18V3.44922H19.0582C20.0868 3.44922 20.9397 3.61849 21.6168 3.95703C22.2939 4.29557 22.7984 4.75456 23.1305 5.33398C23.469 5.9069 23.6383 6.55143 23.6383 7.26758C23.6383 7.87305 23.5243 8.38411 23.2965 8.80078C23.0751 9.21745 22.7789 9.54948 22.4078 9.79688C22.0367 10.0443 21.6266 10.2266 21.1773 10.3438V10.4805C21.6656 10.5065 22.1409 10.6628 22.6031 10.9492C23.0654 11.2357 23.4462 11.6426 23.7457 12.1699C24.0517 12.6908 24.2047 13.3288 24.2047 14.084C24.2047 14.8262 24.0289 15.4935 23.6773 16.0859C23.3323 16.6719 22.7984 17.1374 22.0758 17.4824C21.3531 17.8275 20.4254 18 19.2926 18H13.7164ZM15.9137 16.125H19.0777C20.1324 16.125 20.8876 15.9199 21.3434 15.5098C21.7991 15.0996 22.027 14.5885 22.027 13.9766C22.027 13.5143 21.9098 13.0944 21.6754 12.7168C21.4475 12.3327 21.1187 12.0267 20.6891 11.7988C20.2594 11.571 19.7516 11.457 19.1656 11.457H15.9137V16.125ZM15.9137 9.74805H18.8629C19.3512 9.74805 19.7939 9.65365 20.191 9.46484C20.5882 9.27604 20.9007 9.00911 21.1285 8.66406C21.3629 8.3125 21.4801 7.9056 21.4801 7.44336C21.4801 6.8444 21.2685 6.3431 20.8453 5.93945C20.4286 5.5293 19.7874 5.32422 18.9215 5.32422H15.9137V9.74805ZM31.4562 18.1953C30.2062 18.1953 29.0865 17.8958 28.0969 17.2969C27.1073 16.6979 26.326 15.8418 25.7531 14.7285C25.1802 13.6087 24.8937 12.2773 24.8937 10.7344C24.8937 9.17839 25.1802 7.84375 25.7531 6.73047C26.326 5.61068 27.1073 4.7513 28.0969 4.15234C29.0865 3.55339 30.2062 3.25391 31.4562 3.25391C32.7193 3.25391 33.8423 3.55339 34.8254 4.15234C35.8085 4.7513 36.5832 5.61068 37.1496 6.73047C37.7225 7.84375 38.009 9.17839 38.009 10.7344C38.009 12.2839 37.7225 13.6152 37.1496 14.7285C36.5832 15.8418 35.8085 16.6979 34.8254 17.2969C33.8423 17.8958 32.7193 18.1953 31.4562 18.1953ZM31.4562 16.1934C32.2961 16.1934 33.0448 15.985 33.7023 15.5684C34.3599 15.1517 34.8775 14.5365 35.2551 13.7227C35.6392 12.9089 35.8312 11.9128 35.8312 10.7344C35.8312 9.54948 35.6392 8.55013 35.2551 7.73633C34.8775 6.91602 34.3599 6.29753 33.7023 5.88086C33.0448 5.46419 32.2961 5.25586 31.4562 5.25586C30.6229 5.25586 29.8742 5.46419 29.2102 5.88086C28.5526 6.29753 28.0318 6.91602 27.6477 7.73633C27.2635 8.55013 27.0715 9.54948 27.0715 10.7344C27.0715 11.9128 27.2635 12.9089 27.6477 13.7227C28.0318 14.5365 28.5526 15.1517 29.2102 15.5684C29.8742 15.985 30.6229 16.1934 31.4562 16.1934ZM48.659 3.44922H50.8563V13.0195C50.8563 14.0352 50.6154 14.9368 50.1336 15.7246C49.6583 16.5059 48.9878 17.1211 48.1219 17.5703C47.256 18.013 46.2404 18.2344 45.075 18.2344C43.9161 18.2344 42.9005 18.013 42.0281 17.5703C41.1622 17.1211 40.4884 16.5059 40.0066 15.7246C39.5314 14.9368 39.2938 14.0352 39.2938 13.0195V3.44922H41.491V12.8438C41.491 13.5013 41.6342 14.0872 41.9207 14.6016C42.2137 15.1094 42.6271 15.5098 43.1609 15.8027C43.7013 16.0957 44.3393 16.2422 45.075 16.2422C45.8172 16.2422 46.4552 16.0957 46.9891 15.8027C47.5229 15.5098 47.9331 15.1094 48.2195 14.6016C48.5125 14.0872 48.659 13.5013 48.659 12.8438V3.44922ZM51.8773 5.33398V3.44922H63.1469V5.33398H58.6156V18H56.4281V5.33398H51.8773ZM77.3863 3.44922H79.5836V13.0195C79.5836 14.0352 79.3427 14.9368 78.8609 15.7246C78.3857 16.5059 77.7151 17.1211 76.8492 17.5703C75.9833 18.013 74.9677 18.2344 73.8023 18.2344C72.6435 18.2344 71.6279 18.013 70.7555 17.5703C69.8896 17.1211 69.2158 16.5059 68.734 15.7246C68.2587 14.9368 68.0211 14.0352 68.0211 13.0195V3.44922H70.2184V12.8438C70.2184 13.5013 70.3616 14.0872 70.648 14.6016C70.941 15.1094 71.3544 15.5098 71.8883 15.8027C72.4286 16.0957 73.0667 16.2422 73.8023 16.2422C74.5445 16.2422 75.1826 16.0957 75.7164 15.8027C76.2503 15.5098 76.6604 15.1094 76.9469 14.6016C77.2398 14.0872 77.3863 13.5013 77.3863 12.8438V3.44922ZM86.2004 18.2344C85.1132 18.2344 84.1691 18.0651 83.3684 17.7266C82.5741 17.3815 81.9523 16.89 81.5031 16.252C81.0539 15.6139 80.8033 14.8555 80.7512 13.9766H82.9582C83.0038 14.5039 83.173 14.9434 83.466 15.2949C83.7655 15.64 84.1529 15.8971 84.6281 16.0664C85.1034 16.2357 85.6242 16.3203 86.1906 16.3203C86.8091 16.3203 87.3625 16.2227 87.8508 16.0273C88.3391 15.832 88.7199 15.5586 88.9934 15.207C89.2733 14.849 89.4133 14.4323 89.4133 13.957C89.4133 13.5273 89.2896 13.1758 89.0422 12.9023C88.8013 12.6289 88.4725 12.4043 88.0559 12.2285C87.6392 12.0462 87.1704 11.8867 86.6496 11.75L84.9406 11.2812C83.7688 10.9688 82.8443 10.5033 82.1672 9.88477C81.4901 9.25977 81.1516 8.44271 81.1516 7.43359C81.1516 6.59375 81.3762 5.86133 81.8254 5.23633C82.2811 4.61133 82.8964 4.1263 83.6711 3.78125C84.4523 3.42969 85.328 3.25391 86.298 3.25391C87.2876 3.25391 88.1568 3.42969 88.9055 3.78125C89.6607 4.1263 90.2564 4.60156 90.6926 5.20703C91.1353 5.80599 91.3664 6.49284 91.3859 7.26758H89.257C89.1789 6.59701 88.8664 6.07617 88.3195 5.70508C87.7792 5.33398 87.0891 5.14844 86.2492 5.14844C85.6633 5.14844 85.149 5.24284 84.7063 5.43164C84.2701 5.61393 83.9315 5.86784 83.6906 6.19336C83.4563 6.51888 83.3391 6.89323 83.3391 7.31641C83.3391 7.77214 83.479 8.14323 83.759 8.42969C84.0454 8.71615 84.3905 8.94401 84.7941 9.11328C85.2043 9.27604 85.5982 9.40951 85.9758 9.51367L87.3918 9.89453C87.854 10.0117 88.3293 10.168 88.8176 10.3633C89.3059 10.5586 89.7583 10.8158 90.175 11.1348C90.5982 11.4473 90.9367 11.8379 91.1906 12.3066C91.451 12.7689 91.5813 13.3288 91.5813 13.9863C91.5813 14.8001 91.3697 15.5293 90.9465 16.1738C90.5233 16.8118 89.9113 17.3164 89.1105 17.6875C88.3098 18.0521 87.3397 18.2344 86.2004 18.2344Z" fill="#F8F8F8"/>
<line x1="" y1="33" x2="123" y2="33" stroke="#F8F8F8" stroke-width="2"/>
<path d="M119.999 5.03701C120.02 4.4851 119.589 4.02112 119.037 4.00068L110.043 3.66758C109.491 3.64714 109.027 4.07798 109.007 4.62988C108.986 5.18179 109.417 5.64577 109.969 5.66621L117.964 5.9623L117.668 13.9568C117.647 14.5087 118.078 14.9727 118.63 14.9931C119.182 15.0136 119.646 14.5828 119.666 14.0308L119.999 5.03701ZM105.68 18.7328L119.68 5.73279L118.32 4.26721L104.32 17.2672L105.68 18.7328Z" fill="#F8F8F8"/>
</svg>
