<svg width="153" height="88" viewBox="0 0 153 88" fill="none" xmlns="http://www.w3.org/2000/svg">
<g clip-path="url(#clip0_1_123)">
<g opacity="0.1">
<path d="M5.96104 38.0385C2.66885 38.0385 -4.9337e-07 40.7074 0 43.9998C4.9337e-07 47.2921 2.66885 49.9611 5.96104 49.9611V38.0385ZM84.5326 48.215C86.8606 45.8869 86.8606 42.1126 84.5326 39.7846L46.5966 1.8471C44.2687 -0.480933 40.4945 -0.480933 38.1665 1.8471C35.8386 4.17512 35.8386 7.94961 38.1665 10.2776L71.8873 43.9998L38.1665 77.7219C35.8386 80.05 35.8386 83.8243 38.1665 86.1523C40.4945 88.4804 44.2687 88.4804 46.5966 86.1523L84.5326 48.215ZM5.96104 49.9611H80.3173V38.0385H5.96104V49.9611Z" fill="#F8F8F8"/>
<path d="M111.521 38.0385C108.228 38.0385 105.559 40.7074 105.559 43.9998C105.559 47.2921 108.228 49.9611 111.521 49.9611V38.0385ZM117.395 48.215C119.723 45.8869 119.723 42.1126 117.395 39.7846L79.4595 1.8471C77.1316 -0.480933 73.3574 -0.480933 71.0295 1.8471C68.7015 4.17511 68.7015 7.9496 71.0295 10.2776L104.75 43.9998L71.0295 77.7219C68.7015 80.05 68.7015 83.8243 71.0295 86.1523C73.3574 88.4804 77.1316 88.4804 79.4595 86.1523L117.395 48.215ZM111.521 49.9611H113.18V38.0385H111.521V49.9611Z" fill="#2CB084"/>
<path d="M145.379 38.0385C142.087 38.0385 139.418 40.7074 139.418 43.9998C139.418 47.2921 142.087 49.9611 145.379 49.9611V38.0385ZM151.254 48.215C153.582 45.8869 153.582 42.1126 151.254 39.7846L113.318 1.8471C110.99 -0.480933 107.216 -0.480933 104.888 1.8471C102.56 4.17511 102.56 7.9496 104.888 10.2776L138.609 43.9998L104.888 77.7219C102.56 80.05 102.56 83.8243 104.888 86.1523C107.216 88.4804 110.99 88.4804 113.318 86.1523L151.254 48.215ZM145.379 49.9611H147.039V38.0385H145.379V49.9611Z" fill="#F8F8F8"/>
</g>
</g>
<defs>
<clipPath id="clip0_1_123">
<rect width="153" height="88" fill="#2CB084"/>
</clipPath>
</defs>
</svg>
