<svg width="328" height="497" viewBox="0 0 328 497" fill="none" xmlns="http://www.w3.org/2000/svg">
<rect width="328" height="490" rx="10" fill="#0D394F"/>
<mask id="mask0_1_12" style="mask-type:alpha" maskUnits="userSpaceOnUse" x="0" y="7" width="328" height="490">
<rect y="7" width="328" height="490" rx="10" fill="#0D394F"/>
</mask>
<g mask="url(#mask0_1_12)">
<g opacity="0.36">
<path d="M166.282 219.365L38 217V226.712L166.282 224.347L294.672 221.982V221.73L166.282 219.365Z" fill="#C43F53"/>
<path d="M166.282 229.504L38 227.314V236.675L166.282 234.485L294.672 232.311V231.686L166.282 229.504Z" fill="#C43F53"/>
<path d="M166.282 239.643L38 237.636V246.638L166.282 244.624L294.672 242.641V241.634L166.282 239.643Z" fill="#C43F53"/>
<path d="M166.282 249.781L38 247.95V256.602L166.282 254.763L294.672 252.963V251.582L166.282 249.781Z" fill="#C43F53"/>
<path d="M166.282 259.92L38 258.265V266.565L166.282 264.902L294.672 263.292V261.538L166.282 259.92Z" fill="#C43F53"/>
<path d="M166.282 270.059L38 268.579V276.529L166.282 275.041L294.672 273.614V271.494L166.282 270.059Z" fill="#C43F53"/>
<path d="M166.282 280.198L38 278.901V286.484L166.282 285.18L294.672 283.944V281.442L166.282 280.198Z" fill="#C43F53"/>
<path d="M166.282 290.337L38 289.215V296.448L166.282 295.326L294.672 294.266V291.397L166.282 290.337Z" fill="#C43F53"/>
<path d="M166.282 300.483L38 299.537V306.411L166.282 305.465L294.672 304.588V301.353L166.282 300.483Z" fill="#C43F53"/>
<path d="M166.282 310.614L38 309.852V316.367L166.282 315.604L294.672 314.91V311.309L166.282 310.614Z" fill="#C43F53"/>
<path d="M166.282 320.761L38 320.173V326.322L166.282 325.742L294.672 325.231V321.264L166.282 320.761Z" fill="#C43F53"/>
<path d="M166.282 330.9L38 330.495V336.286L166.282 335.881L294.672 335.553V331.22L166.282 330.9Z" fill="#C43F53"/>
<path d="M166.282 341.038L38 340.81V346.241L166.282 346.02L294.672 345.875V341.176L166.282 341.038Z" fill="#C43F53"/>
<path d="M166.282 351.178L38 351.132V356.197L166.282 356.159L294.672 356.197V351.132L166.282 351.178Z" fill="#C43F53"/>
<path d="M166.282 361.316L38 361.454V366.161L166.282 366.298L294.672 366.519V361.087L166.282 361.316Z" fill="#C43F53"/>
<path d="M166.282 371.455L38 371.776V376.116L166.282 376.437L294.672 376.841V371.051L166.282 371.455Z" fill="#C43F53"/>
<path d="M166.282 381.594L38 382.097V386.072L166.282 386.575L294.672 387.163V381.006L166.282 381.594Z" fill="#C43F53"/>
<path d="M166.282 391.733L38 392.419V396.028L166.282 396.714L294.672 397.477V390.962L166.282 391.733Z" fill="#C43F53"/>
<path d="M166.282 401.872L38 402.741V405.984L166.282 406.853L294.672 407.799V400.926L166.282 401.872Z" fill="#C43F53"/>
<path d="M166.282 412.01L38 413.063V415.932L166.282 416.992L294.672 418.121V410.889L166.282 412.01Z" fill="#C43F53"/>
<path d="M166.282 422.149L38 423.393V425.887L166.282 427.131L294.672 428.435V420.844L166.282 422.149Z" fill="#C43F53"/>
<path d="M166.282 432.288L38 433.714V435.843L166.282 437.27L294.672 438.75V430.808L166.282 432.288Z" fill="#C43F53"/>
<path d="M166.282 442.427L38 444.044V445.799L166.282 447.408L294.672 449.072V440.764L166.282 442.427Z" fill="#C43F53"/>
<path d="M166.282 452.566L38 454.366V455.747L166.282 457.548L294.672 459.386V450.727L166.282 452.566Z" fill="#C43F53"/>
<path d="M166.282 462.704L38 464.696V465.703L166.282 467.686L294.672 469.7V460.69L166.282 462.704Z" fill="#C43F53"/>
<path d="M166.282 472.843L38 475.018V475.651L166.282 477.825L294.672 480.014V470.654L166.282 472.843Z" fill="#C43F53"/>
<path d="M166.282 482.982L38 485.347V485.607L166.282 487.964L294.672 490.336V480.617L166.282 482.982Z" fill="#C43F53"/>
</g>
</g>
</svg>
