<svg width="328" height="490" viewBox="0 0 328 490" fill="none" xmlns="http://www.w3.org/2000/svg">
<rect width="328" height="490" rx="10" fill="#0D394F"/>
<mask id="mask0_1_46" style="mask-type:alpha" maskUnits="userSpaceOnUse" x="0" y="0" width="328" height="490">
<rect width="328" height="490" rx="10" fill="#0D394F"/>
</mask>
<g mask="url(#mask0_1_46)">
<g opacity="0.11">
<path d="M220.789 371.936L220.544 377.501C220.33 379.346 220.025 381.18 219.77 383.025C219.515 384.87 218.914 386.643 218.496 388.458C218.078 390.272 217.313 391.994 216.722 393.758C213.196 402.988 207.465 411.216 200.028 417.722C192.592 424.229 183.676 428.817 174.059 431.086C164.442 433.354 154.415 433.235 144.855 430.739C135.294 428.242 126.49 423.444 119.21 416.762C113.044 411.077 108.126 404.174 104.767 396.489C101.405 388.74 99.6699 380.383 99.6709 371.936L100.028 365.637C100.293 363.598 100.66 361.468 100.986 359.399C101.312 357.33 102.066 355.322 102.606 353.283C103.147 351.245 104.084 349.339 104.838 347.382C108.208 339.706 113.129 332.811 119.292 327.129C125.391 321.578 132.541 317.305 140.319 314.562C155.184 309.459 171.448 310.309 185.699 316.935C199.951 323.562 211.084 335.448 216.763 350.103C217.354 351.877 218.017 353.62 218.547 355.403C219.077 357.187 219.433 359.032 219.821 360.846C220.208 362.66 220.381 364.515 220.595 366.36L220.789 371.936ZM219.291 371.936C219.297 361.031 216.065 350.371 210.004 341.307C203.942 332.242 195.325 325.183 185.245 321.024C175.165 316.864 164.077 315.793 153.387 317.945C142.698 320.097 132.888 325.376 125.203 333.112C117.547 340.81 112.338 350.6 110.233 361.251C108.127 371.902 109.218 382.937 113.369 392.969C117.52 403.001 124.546 411.582 133.561 417.631C142.577 423.68 153.18 426.928 164.037 426.965C178.661 426.99 192.697 421.205 203.058 410.884C213.42 400.563 219.258 386.55 219.291 371.925V371.936Z" fill="#DEAF45"/>
<path d="M228.178 371.936C228.265 380.379 226.689 388.757 223.541 396.592C221.971 400.516 220.064 404.298 217.843 407.895C215.58 411.496 212.972 414.869 210.056 417.965C204.028 424.486 196.769 429.75 188.698 433.454C180.627 437.159 171.903 439.23 163.029 439.549C154.154 439.868 145.304 438.429 136.988 435.315C128.672 432.2 121.054 427.471 114.572 421.4C111.241 418.237 108.224 414.759 105.562 411.014C102.869 407.258 100.596 403.218 98.784 398.966C95.0808 390.443 93.1698 381.249 93.1698 371.956C93.1698 362.663 95.0808 353.469 98.784 344.946C102.493 336.488 107.866 328.862 114.582 322.522C121.07 316.469 128.689 311.755 137.001 308.65C145.314 305.546 154.157 304.111 163.025 304.43C171.892 304.748 180.61 306.812 188.679 310.504C196.747 314.197 204.008 319.444 210.046 325.947C212.961 329.038 215.566 332.408 217.823 336.007C220.048 339.603 221.957 343.385 223.531 347.311C226.68 355.135 228.259 363.502 228.178 371.936ZM226.262 371.936C226.289 356.502 220.575 341.61 210.23 330.155C199.886 318.701 185.651 311.504 170.294 309.963C154.937 308.423 139.556 312.649 127.142 321.821C114.729 330.992 106.17 344.452 103.131 359.584C100.091 374.716 102.789 390.437 110.698 403.69C118.608 416.943 131.164 426.781 145.924 431.29C160.685 435.799 176.595 434.656 190.56 428.085C204.525 421.513 215.547 409.983 221.482 395.735C224.621 388.193 226.246 380.106 226.262 371.936Z" fill="#DEAF45"/>
<path d="M235.538 371.935C235.612 381.342 233.836 390.672 230.309 399.394C226.826 408.186 221.688 416.227 215.173 423.081C206.724 432.066 196.172 438.805 184.467 442.692C172.763 446.579 160.275 447.491 148.13 445.346C135.986 443.201 124.566 438.067 114.901 430.406C105.236 422.744 97.6308 412.798 92.7707 401.463C88.7562 392.138 86.6856 382.093 86.6856 371.94C86.6856 361.788 88.7562 351.742 92.7707 342.417C96.79 333.16 102.623 324.8 109.925 317.833C117.028 311.112 125.386 305.858 134.522 302.369C143.657 298.881 153.391 297.228 163.166 297.505C172.941 297.781 182.565 299.981 191.489 303.98C200.413 307.979 208.461 313.698 215.173 320.809C218.432 324.23 221.354 327.958 223.898 331.94C226.402 335.924 228.548 340.123 230.309 344.487C233.836 353.204 235.612 362.531 235.538 371.935ZM233.265 371.935C233.283 354.769 226.917 338.21 215.404 325.477C203.891 312.744 188.054 304.749 170.973 303.045C153.892 301.341 136.788 306.05 122.986 316.258C109.185 326.465 99.6727 341.441 96.3 358.272C92.9272 375.103 95.9348 392.587 104.738 407.324C113.541 422.061 127.51 432.998 143.929 438.006C160.348 443.015 178.043 441.739 193.573 434.425C209.103 427.112 221.358 414.284 227.954 398.436C231.45 390.037 233.254 381.032 233.265 371.935Z" fill="#DEAF45"/>
<path d="M242.866 371.935C242.93 382.3 240.953 392.576 237.046 402.176C233.182 411.842 227.489 420.67 220.279 428.178C210.994 437.911 199.437 445.187 186.646 449.351C173.855 453.516 160.23 454.439 146.994 452.039C133.758 449.638 121.325 443.988 110.812 435.597C100.298 427.205 92.0324 416.335 86.7569 403.96C82.439 393.837 80.2133 382.946 80.2133 371.94C80.2133 360.935 82.439 350.043 86.7569 339.92C91.087 329.852 97.3833 320.749 105.277 313.145C116.982 301.964 131.749 294.521 147.699 291.762C163.649 289.003 180.058 291.053 194.839 297.652C199.63 299.809 204.198 302.43 208.476 305.48C212.715 308.516 216.672 311.928 220.3 315.672C227.507 323.18 233.203 332.004 237.077 341.663C240.976 351.276 242.943 361.562 242.866 371.935ZM240.298 371.935C240.309 353.041 233.293 334.819 220.614 320.811C207.934 306.803 190.499 298.011 171.697 296.145C152.896 294.279 134.072 299.472 118.887 310.714C103.702 321.957 93.2406 338.445 89.5377 356.972C85.8348 375.5 89.1549 394.743 98.8522 410.958C108.55 427.174 123.931 439.203 142.006 444.707C160.08 450.211 179.556 448.796 196.645 440.738C213.734 432.679 227.215 418.553 234.467 401.106C238.315 391.861 240.306 381.949 240.328 371.935H240.298Z" fill="#DEAF45"/>
<path d="M250.154 371.936C250.192 394.988 241.199 417.139 225.101 433.64C209.004 450.141 187.083 459.681 164.037 460.214C146.351 460.658 128.94 455.771 114.069 446.188C99.1974 436.604 87.5536 422.768 80.6515 406.478C76.0206 395.553 73.6343 383.808 73.6343 371.941C73.6343 360.075 76.0206 348.329 80.6515 337.404C87.578 321.135 99.2266 307.319 114.091 297.743C128.954 288.167 146.35 283.271 164.027 283.689C187.052 284.268 208.941 293.818 225.028 310.302C241.115 326.787 250.127 348.903 250.143 371.936H250.154ZM247.361 371.936C247.364 351.297 239.691 331.394 225.835 316.098C211.978 300.802 192.928 291.206 172.389 289.176C151.85 287.146 131.29 292.827 114.707 305.114C98.1243 317.401 86.7037 335.416 82.666 355.657C78.6283 375.897 82.2622 396.915 92.8611 414.625C103.46 432.335 120.266 445.47 140.012 451.476C159.758 457.482 181.032 455.93 199.697 447.122C218.362 438.314 233.084 422.878 241.001 403.818C245.192 393.711 247.353 382.878 247.361 371.936Z" fill="#DEAF45"/>
<path d="M257.421 371.935C257.441 393.907 249.857 415.209 235.956 432.225C222.056 449.241 202.696 460.924 181.162 465.289C159.628 469.655 137.247 466.435 117.817 456.176C98.3874 445.916 83.1061 429.25 74.5668 409.005C67.1096 391.356 65.1496 371.868 68.9428 353.088C72.7359 334.307 82.106 317.108 95.8285 303.737C109.243 290.688 126.206 281.883 144.597 278.42C162.988 274.958 181.991 276.992 199.232 284.268C216.474 291.545 231.188 303.741 241.538 319.333C251.887 334.925 257.411 353.221 257.421 371.935ZM254.465 371.935C254.469 349.522 246.137 327.908 231.09 311.297C216.042 294.686 195.354 284.265 173.05 282.061C150.745 279.857 128.418 286.027 110.41 299.371C92.4018 312.715 80.0003 332.28 75.6172 354.261C71.234 376.241 75.1824 399.066 86.6945 418.297C98.2066 437.528 116.459 451.79 137.904 458.31C159.348 464.83 182.45 463.141 202.718 453.573C222.987 444.004 238.972 427.239 247.565 406.539C252.108 395.567 254.452 383.81 254.465 371.935Z" fill="#DEAF45"/>
<path d="M264.648 371.936C264.723 385.178 262.186 398.306 257.18 410.566C252.174 422.827 244.799 433.98 235.477 443.385C226.157 452.899 215.081 460.515 202.86 465.809C184.257 473.787 163.703 476.059 143.806 472.335C123.91 468.611 105.568 459.06 91.1093 444.894C81.4484 435.365 73.7771 424.012 68.5412 411.493C63.3053 398.975 60.609 385.541 60.609 371.971C60.609 358.402 63.3053 344.968 68.5412 332.449C73.7771 319.931 81.4484 308.577 91.1093 299.049C105.577 284.886 123.924 275.338 143.826 271.618C163.727 267.898 184.285 270.173 202.891 278.154C215.104 283.438 226.18 291.035 235.507 300.527C244.828 309.931 252.203 321.082 257.209 333.341C262.214 345.599 264.752 358.725 264.678 371.966L264.648 371.936ZM261.59 371.936C261.581 347.778 252.588 324.487 236.36 306.592C220.132 288.697 197.829 277.476 173.788 275.111C149.746 272.747 125.684 279.407 106.281 293.798C86.8779 308.189 73.5199 329.282 68.8046 352.975C64.0893 376.668 68.3538 401.268 80.7687 421.991C93.1835 442.714 112.861 458.08 135.976 465.101C159.091 472.121 183.991 470.294 205.834 459.976C227.677 449.657 244.902 431.584 254.159 409.271C259.06 397.433 261.585 384.748 261.59 371.936Z" fill="#DEAF45"/>
<path d="M271.844 371.935C271.9 386.111 269.162 400.159 263.786 413.276C258.409 426.392 250.501 438.321 240.512 448.38C225.421 463.717 206.127 474.244 185.062 478.632C163.998 483.019 142.105 481.072 122.146 473.035C108.783 467.672 96.6216 459.703 86.3698 449.592C76.0976 439.433 67.9426 427.337 62.3769 414.004C56.8112 400.672 53.9454 386.368 53.9454 371.92C53.9454 357.473 56.8112 343.168 62.3769 329.836C67.9426 316.503 76.0976 304.407 86.3698 294.248C101.66 279.113 121.09 268.847 142.209 264.744C163.328 260.641 185.189 262.885 205.033 271.194C224.878 279.502 241.817 293.503 253.713 311.428C265.608 329.354 271.928 350.401 271.874 371.915L271.844 371.935ZM268.786 371.935C268.773 346.004 259.116 321.005 241.695 301.798C224.273 282.592 200.331 270.55 174.524 268.015C148.718 265.481 122.89 272.634 102.065 288.084C81.2392 303.534 66.9036 326.177 61.8455 351.61C56.7874 377.043 61.3682 403.448 74.6974 425.691C88.0266 447.934 109.151 464.425 133.964 471.957C158.777 479.49 185.504 477.526 208.949 466.446C232.394 455.367 250.881 435.965 260.815 412.012C266.063 399.303 268.76 385.686 268.755 371.935H268.786Z" fill="#DEAF45"/>
<path d="M279.06 371.935C279.106 387.051 276.172 402.029 270.427 416.011C264.682 429.994 256.238 442.707 245.577 453.424C229.484 469.705 208.931 480.855 186.509 485.47C164.087 490.084 140.801 487.956 119.587 479.354C105.415 473.616 92.5238 465.121 81.6606 454.362C70.7069 443.642 61.9883 430.855 56.009 416.743C50.0297 402.631 46.9086 387.473 46.8264 372.146C46.7441 356.82 49.7024 341.629 55.5299 327.453C61.3574 313.278 69.9385 300.398 80.7765 289.561C91.6144 278.724 104.494 270.144 118.67 264.317C132.846 258.49 148.037 255.533 163.363 255.616C178.69 255.699 193.848 258.821 207.96 264.802C222.072 270.782 234.858 279.501 245.577 290.456C256.239 301.17 264.683 313.882 270.428 327.863C276.174 341.843 279.107 356.82 279.06 371.935ZM276.002 371.935C276.001 344.187 265.68 317.431 247.046 296.871C228.412 276.31 202.797 263.416 175.183 260.694C147.569 257.973 119.929 265.62 97.6403 282.147C75.3514 298.675 60.0061 322.901 54.5892 350.116C49.1723 377.33 54.0709 405.586 68.3323 429.388C82.5936 453.191 105.198 470.839 131.75 478.899C158.301 486.959 186.902 484.856 211.988 472.998C237.075 461.141 256.855 440.376 267.481 414.744C273.102 401.171 275.997 386.625 276.002 371.935Z" fill="#DEAF45"/>
<path d="M286.134 371.935C286.157 396.18 278.995 419.889 265.553 440.067C252.111 460.245 232.991 475.988 210.608 485.307C188.225 494.626 163.583 497.103 139.793 492.427C116.003 487.75 94.1315 476.129 76.9417 459.03C64.0275 446.217 54.1215 430.694 47.9395 413.584C41.7575 396.474 39.4541 378.204 41.1956 360.095C42.9372 341.986 48.6801 324.491 58.0096 308.872C67.3391 293.254 80.0219 279.904 95.1414 269.786C110.261 259.669 127.439 253.036 145.435 250.369C163.431 247.702 181.795 249.066 199.199 254.363C216.603 259.66 232.613 268.757 246.072 280.998C259.531 293.238 270.102 308.316 277.021 325.141C283.095 339.991 286.191 355.891 286.134 371.935ZM283.178 371.935C283.161 342.413 272.165 313.952 252.329 292.088C232.493 270.223 205.234 256.516 175.853 253.634C146.472 250.752 117.069 258.899 93.3624 276.492C69.6553 294.086 53.3384 319.867 47.5848 348.823C41.8311 377.778 47.052 407.839 62.2321 433.16C77.4121 458.48 101.466 477.249 129.717 485.819C157.968 494.388 188.396 492.144 215.085 479.524C241.773 466.904 262.814 444.809 274.117 417.536C280.082 403.074 283.147 387.58 283.137 371.935H283.178Z" fill="#DEAF45"/>
<path d="M293.238 371.936C293.144 403.998 281.129 434.878 259.529 458.572C237.929 482.267 208.289 497.08 176.373 500.132C144.457 503.184 112.546 494.256 86.8475 475.085C61.1488 455.914 43.499 427.87 37.3309 396.407C31.1627 364.944 36.9171 332.312 53.4748 304.856C70.0326 277.401 96.2099 257.085 126.916 247.86C157.622 238.635 190.662 241.161 219.609 254.945C248.556 268.73 271.342 292.788 283.534 322.441C289.981 338.144 293.278 354.961 293.238 371.936ZM290.445 371.936C290.44 340.583 278.773 310.352 257.715 287.123C236.656 263.894 207.711 249.328 176.508 246.258C145.305 243.188 114.076 251.832 88.8936 270.511C63.7112 289.189 46.376 316.566 40.2595 347.317C34.143 378.068 39.6824 409.995 55.8004 436.888C71.9184 463.781 97.4627 483.718 127.465 492.822C157.468 501.925 189.784 499.544 218.129 486.142C246.474 472.74 268.82 449.275 280.823 420.31C287.176 404.974 290.446 388.536 290.445 371.936Z" fill="#DEAF45"/>
<path d="M284.952 434.429C269.365 464.41 243.184 487.522 211.501 499.271C179.818 511.02 144.898 510.565 113.532 497.995C82.1652 485.426 56.5948 461.64 41.7931 431.263C26.9913 400.886 24.0163 366.09 33.4466 333.641C42.8769 301.193 64.0383 273.411 92.8157 255.699C121.593 237.988 155.929 231.612 189.147 237.812C222.364 244.012 252.089 262.344 272.539 289.244C292.99 316.144 302.705 349.688 299.796 383.354C298.243 401.187 293.199 418.541 284.952 434.429ZM282.671 433.249C297.894 403.808 301.623 369.759 293.134 337.721C284.645 305.683 264.544 277.948 236.74 259.909C208.936 241.869 175.417 234.816 142.7 240.119C109.984 245.422 80.4096 262.704 59.7282 288.603C39.0468 314.502 28.7369 347.167 30.8035 380.246C32.8699 413.325 47.1651 444.453 70.909 467.576C94.653 490.7 126.148 504.167 159.27 505.357C192.392 506.547 224.773 495.377 250.116 474.017C263.535 462.693 274.596 448.841 282.671 433.249Z" fill="#DEAF45"/>
<path d="M267.238 471.11C242.57 496.702 209.265 512.205 173.801 514.603C138.336 517.002 103.248 506.124 75.3586 484.086C47.4696 462.048 28.7739 430.425 22.9076 395.367C17.0412 360.309 24.4235 324.323 43.6188 294.406C62.814 264.489 92.4501 242.781 126.763 233.503C161.076 224.225 197.614 228.041 229.269 244.209C260.925 260.376 285.437 287.739 298.036 320.976C310.636 354.214 310.424 390.949 297.44 424.038C290.558 441.558 280.295 457.552 267.238 471.11ZM265.599 469.535C289.811 444.32 303.78 411.001 304.789 376.058C305.798 341.116 293.775 307.046 271.058 280.476C248.341 253.906 216.555 236.734 181.879 232.3C147.204 227.867 112.12 236.488 83.448 256.487C54.7765 276.486 34.5678 306.434 26.7519 340.506C18.936 374.579 24.0716 410.34 41.16 440.836C58.2485 471.333 86.0682 494.383 119.209 505.506C152.35 516.628 188.443 515.027 220.469 501.015C237.43 493.58 252.764 482.885 265.599 469.535Z" fill="#DEAF45"/>
<path d="M293.07 448.774C273.954 480.747 243.63 504.467 207.995 515.323C172.361 526.178 133.962 523.393 100.267 507.508C66.5724 491.624 39.9892 463.775 25.6874 429.379C11.3856 394.982 10.3875 356.496 22.887 321.404C35.3865 286.313 60.4902 257.124 93.3164 239.514C126.143 221.904 164.345 217.132 200.494 226.126C236.644 235.119 268.156 257.236 288.904 288.174C309.652 319.113 318.152 356.662 312.751 393.52C309.881 413.051 303.193 431.826 293.07 448.774ZM291.424 447.793C310.249 416.188 316.647 378.711 309.373 342.65C302.099 306.59 281.674 274.524 252.069 252.687C222.464 230.851 185.796 220.806 149.196 224.505C112.596 228.204 78.6796 245.384 54.043 272.702C29.4065 300.021 15.8107 335.526 15.8998 372.312C15.9888 409.099 29.7564 444.538 54.5249 471.737C79.2935 498.936 113.293 515.95 149.91 519.472C186.528 522.994 223.147 512.772 252.645 490.793C268.265 479.14 281.441 464.529 291.424 447.793Z" fill="#DEAF45"/>
<path d="M309.086 432.557C294.009 468.506 266.102 497.562 230.79 514.076C195.478 530.59 155.287 533.38 118.032 521.905C80.7768 510.43 49.121 485.51 29.2204 451.99C9.31986 418.47 2.59704 378.747 10.3594 340.545C18.1217 302.343 39.8143 268.394 71.2187 245.299C102.623 222.204 141.495 211.614 180.274 215.589C219.053 219.563 254.968 237.818 281.034 266.804C307.101 295.789 321.455 333.433 321.307 372.415C321.219 393.07 317.067 413.506 309.086 432.557ZM307.704 431.979C322.596 396.347 323.703 356.45 310.811 320.047C297.918 283.644 271.948 253.337 237.949 235.02C203.951 216.703 164.355 211.685 126.863 220.943C89.37 230.2 56.6604 253.071 35.0951 285.107C13.5299 317.144 4.65047 356.056 10.1837 394.276C15.7169 432.497 35.2671 467.293 65.0325 491.898C94.798 516.504 132.651 529.159 171.229 527.404C209.808 525.648 246.355 509.607 273.763 482.401C288.28 467.986 299.819 450.856 307.723 431.987L307.704 431.979Z" fill="#DEAF45"/>
<path d="M164.037 535.638C254.447 535.638 327.739 462.346 327.739 371.935C327.739 281.525 254.447 208.233 164.037 208.233C73.6264 208.233 0.33429 281.525 0.33429 371.935C0.33429 462.346 73.6264 535.638 164.037 535.638Z" stroke="#DEAF45" stroke-miterlimit="10"/>
</g>
</g>
</svg>
