<svg width="328" height="491" viewBox="0 0 328 491" fill="none" xmlns="http://www.w3.org/2000/svg">
<rect width="328" height="490" rx="10" fill="#0D394F"/>
<g opacity="0.21">
<path d="M46 312.928V252H119.835C144.038 252 163.661 265.612 163.661 282.464C163.661 299.284 183.278 312.928 207.487 312.928H282.256V252" stroke="#E5E013" stroke-miterlimit="10"/>
<path d="M46 323.979V263.051H119.835C144.038 263.051 163.661 276.695 163.661 293.515C163.661 310.368 183.278 323.979 207.487 323.979H282.256V263.051" stroke="#E5E013" stroke-miterlimit="10"/>
<path d="M46 335.069V274.141H119.835C144.038 274.141 163.661 287.753 163.661 304.605C163.661 321.458 183.278 335.069 207.487 335.069H282.256V274.141" stroke="#E5E013" stroke-miterlimit="10"/>
<path d="M46 346.153V285.225H119.835C144.038 285.225 163.661 298.837 163.661 315.689C163.661 332.542 183.278 346.153 207.487 346.153H282.256V285.225" stroke="#E5E013" stroke-miterlimit="10"/>
<path d="M46 357.243V296.315H119.835C144.038 296.315 163.661 309.927 163.661 326.779C163.661 343.632 183.278 357.243 207.487 357.243H282.256V296.315" stroke="#E5E013" stroke-miterlimit="10"/>
<path d="M46 368.327V307.399H119.835C144.038 307.399 163.661 321.011 163.661 337.863C163.661 354.716 183.278 368.327 207.487 368.327H282.256V307.399" stroke="#E5E013" stroke-miterlimit="10"/>
<path d="M46 379.417V318.489H119.835C144.038 318.489 163.661 332.101 163.661 348.953C163.661 365.806 183.278 379.417 207.487 379.417H282.256V318.489" stroke="#E5E013" stroke-miterlimit="10"/>
<path d="M46 390.501V329.573H119.835C144.038 329.573 163.661 343.217 163.661 360.037C163.661 376.889 183.278 390.501 207.487 390.501H282.256V329.573" stroke="#E5E013" stroke-miterlimit="10"/>
<path d="M46 401.591V340.663H119.835C144.038 340.663 163.661 354.275 163.661 371.127C163.661 387.979 183.278 401.591 207.487 401.591H282.256V340.663" stroke="#E5E013" stroke-miterlimit="10"/>
<path d="M46 412.675V351.747H119.835C144.038 351.747 163.661 365.391 163.661 382.211C163.661 399.064 183.278 412.675 207.487 412.675H282.256V351.747" stroke="#E5E013" stroke-miterlimit="10"/>
<path d="M46 423.765V362.837H119.835C144.038 362.837 163.661 376.449 163.661 393.301C163.661 410.154 183.278 423.765 207.487 423.765H282.256V362.837" stroke="#E5E013" stroke-miterlimit="10"/>
<path d="M46 434.849V373.921H119.835C144.038 373.921 163.661 387.532 163.661 404.385C163.661 421.237 183.278 434.849 207.487 434.849H282.256V373.921" stroke="#E5E013" stroke-miterlimit="10"/>
<path d="M46 445.939V385.011H119.835C144.038 385.011 163.661 398.623 163.661 415.475C163.661 432.327 183.278 445.939 207.487 445.939H282.256V385.011" stroke="#E5E013" stroke-miterlimit="10"/>
<path d="M46 457.023V396.095H119.835C144.038 396.095 163.661 409.706 163.661 426.559C163.661 443.411 183.278 457.023 207.487 457.023H282.256V396.095" stroke="#E5E013" stroke-miterlimit="10"/>
<path d="M46 468.113V407.185H119.835C144.038 407.185 163.661 420.797 163.661 437.649C163.661 454.501 183.278 468.113 207.487 468.113H282.256V407.185" stroke="#E5E013" stroke-miterlimit="10"/>
<path d="M46 479.197V418.269H119.835C144.038 418.269 163.661 431.88 163.661 448.733C163.661 465.585 183.278 479.197 207.487 479.197H282.256V418.269" stroke="#E5E013" stroke-miterlimit="10"/>
<path d="M46 490.287V429.359H119.835C144.038 429.359 163.661 442.97 163.661 459.823C163.661 476.675 183.278 490.287 207.487 490.287H282.256V429.359" stroke="#E5E013" stroke-miterlimit="10"/>
<path d="M103.909 485.011C113.926 485.011 122.047 476.897 122.047 466.888C122.047 456.879 113.926 448.765 103.909 448.765C93.8922 448.765 85.7717 456.879 85.7717 466.888C85.7717 476.897 93.8922 485.011 103.909 485.011Z" fill="#EBC4BA"/>
<path d="M227.415 295.81C237.432 295.81 245.553 287.696 245.553 277.687C245.553 267.678 237.432 259.564 227.415 259.564C217.398 259.564 209.277 267.678 209.277 277.687C209.277 287.696 217.398 295.81 227.415 295.81Z" fill="#EBC4BA"/>
</g>
</svg>
