<svg width="209" height="200" viewBox="0 0 209 200" fill="none" xmlns="http://www.w3.org/2000/svg">
<path d="M27.3228 94.0322V99.523H42.6425V0H0V56.5922C7.93378 59.1326 14.8554 64.1278 19.7662 70.857C24.677 77.5863 27.3232 85.7016 27.3228 94.0322Z" fill="#AB64FF"/>
<path d="M27.2065 105.014V99.5232H11.8867V199.046H54.5293V142.454C46.5955 139.914 39.6739 134.918 34.7631 128.189C29.8522 121.46 27.2062 113.345 27.2065 105.014Z" fill="#2CB084"/>
<path d="M78.6568 94.0322V99.523H93.9765V0H51.3339V56.5922C59.2673 59.1333 66.1884 64.1287 71.0991 70.8577C76.0099 77.5868 78.6564 85.7018 78.6568 94.0322Z" fill="#2CB084"/>
<path d="M78.5404 105.014V99.5232H63.2156V199.046H105.863V142.454C97.9295 139.914 91.0079 134.918 86.097 128.189C81.1862 121.46 78.54 113.345 78.5404 105.014Z" fill="#AB64FF"/>
<path d="M129.854 94.0322V99.523H145.179V0H102.531V56.5922C110.465 59.1326 117.387 64.1278 122.298 70.857C127.208 77.5863 129.854 85.7016 129.854 94.0322Z" fill="#AB64FF"/>
<path d="M129.738 105.014V99.5232H114.418V199.046H157.061V142.454C149.127 139.913 142.206 134.918 137.295 128.188C132.385 121.459 129.738 113.344 129.738 105.014Z" fill="#2CB084"/>
<path d="M181.006 94.0322V99.523H196.331V0H153.688V56.5922C161.621 59.1335 168.542 64.1291 173.452 70.8582C178.361 77.5874 181.007 85.7022 181.006 94.0322Z" fill="#2CB084"/>
<path d="M180.895 105.014V99.5232H165.56V199.046H208.203V142.454C200.272 139.911 193.353 134.915 188.445 128.186C183.537 121.457 180.894 113.343 180.895 105.014Z" fill="#AB64FF"/>
</svg>
